<svg width="400" height="200">
<rect width="400" height="200" fill="white"/>
<polygon points="120.0,111.04533354441325 131.04533513387045,137.71199862162274 146.66666666666666,144.181334177653 162.2880013783773,137.71199862162274 173.33333333333334,111.04533354441325 146.66666666666666,100.0" style="fill:red;stroke:red;stroke-width:1" /><polygon points="120.0,111.04533354441325 131.04533513387045,137.71199862162274 146.66666666666666,144.181334177653 162.2880013783773,137.71199862162274 173.33333333333334,111.04533354441325 146.66666666666666,100.0" style="fill:red;stroke:red;stroke-width:1" /><polygon points="120.0,88.95466645558676 146.66666666666666,100.0 173.33333333333334,88.95466645558676 162.2880013783773,62.28800137837728 146.66666666666666,55.81866582234701 131.04533513387045,62.28800137837728" style="fill:green;stroke:green;stroke-width:1" /><polygon points="120.0,88.95466645558676 146.66666666666666,100.0 173.33333333333334,88.95466645558676 162.2880013783773,62.28800137837728 146.66666666666666,55.81866582234701 131.04533513387045,62.28800137837728" style="fill:green;stroke:green;stroke-width:1" /><polygon points="146.66666666666666,100.0 173.33333333333334,111.04533354441325 177.90933291117352,100.0 173.33333333333334,88.95466645558676" style="fill:blue;stroke:blue;stroke-width:1" /><polygon points="146.66666666666666,100.0 173.33333333333334,111.04533354441325 177.90933291117352,100.0 173.33333333333334,88.95466645558676" style="fill:blue;stroke:blue;stroke-width:1" /><polygon points="155.81866582234701,153.33333333333334 162.2880013783773,168.95466486612958 188.95466645558676,180.0 200.0,153.33333333333334 188.95466645558676,126.66666666666667 162.2880013783773,137.71199862162274" style="fill:purple;stroke:purple;stroke-width:1" /><polygon points="155.81866582234701,153.33333333333334 162.2880013783773,168.95466486612958 188.95466645558676,180.0 200.0,153.33333333333334 188.95466645558676,126.66666666666667 162.2880013783773,137.71199862162274" style="fill:purple;stroke:purple;stroke-width:1" /><polygon points="155.81866582234701,46.66666666666667 162.2880013783773,62.28800137837728 188.95466645558676,73.33333333333334 200.0,46.66666666666667 188.95466645558676,20.0 162.2880013783773,31.045335133870445" style="fill:orange;stroke:orange;stroke-width:1" /><polygon points="155.81866582234701,46.66666666666667 162.2880013783773,62.28800137837728 188.95466645558676,73.33333333333334 200.0,46.66666666666667 188.95466645558676,20.0 162.2880013783773,31.045335133870445" style="fill:orange;stroke:orange;stroke-width:1" /><polygon points="162.2880013783773,137.71199862162274 188.95466645558676,126.66666666666667 184.37866687774658,115.62133312225342 173.33333333333334,111.04533354441325" style="fill:saddlebrown;stroke:saddlebrown;stroke-width:1" /><polygon points="162.2880013783773,137.71199862162274 188.95466645558676,126.66666666666667 184.37866687774658,115.62133312225342 173.33333333333334,111.04533354441325" style="fill:saddlebrown;stroke:saddlebrown;stroke-width:1" /><polygon points="162.2880013783773,62.28800137837728 173.33333333333334,88.95466645558676 184.37866687774658,84.37866687774658 188.95466645558676,73.33333333333334" style="fill:mediumseagreen;stroke:mediumseagreen;stroke-width:1" /><polygon points="162.2880013783773,62.28800137837728 173.33333333333334,88.95466645558676 184.37866687774658,84.37866687774658 188.95466645558676,73.33333333333334" style="fill:mediumseagreen;stroke:mediumseagreen;stroke-width:1" /><polygon points="173.33333333333334,111.04533354441325 184.37866687774658,115.62133312225342 188.95466645558676,126.66666666666667 200.0,122.0906670888265 211.04533354441327,126.66666666666667 215.62133312225342,115.62133312225342 226.66666666666669,111.04533354441325 222.0906670888265,100.0 226.66666666666669,88.95466645558676 215.62133312225342,84.37866687774658 211.04533354441327,73.33333333333334 200.0,77.90933291117351 188.95466645558676,73.33333333333334 184.37866687774658,84.37866687774658 173.33333333333334,88.95466645558676 177.90933291117352,100.0" style="fill:darkolivegreen;stroke:darkolivegreen;stroke-width:1" /><polygon points="173.33333333333334,111.04533354441325 184.37866687774658,115.62133312225342 188.95466645558676,126.66666666666667 200.0,122.0906670888265 211.04533354441327,126.66666666666667 215.62133312225342,115.62133312225342 226.66666666666669,111.04533354441325 222.0906670888265,100.0 226.66666666666669,88.95466645558676 215.62133312225342,84.37866687774658 211.04533354441327,73.33333333333334 200.0,77.90933291117351 188.95466645558676,73.33333333333334 184.37866687774658,84.37866687774658 173.33333333333334,88.95466645558676 177.90933291117352,100.0" style="fill:darkolivegreen;stroke:darkolivegreen;stroke-width:1" /><polygon points="188.95466645558676,126.66666666666667 200.0,153.33333333333334 211.04533354441327,126.66666666666667 200.0,122.0906670888265" style="fill:darkred;stroke:darkred;stroke-width:1" /><polygon points="188.95466645558676,126.66666666666667 200.0,153.33333333333334 211.04533354441327,126.66666666666667 200.0,122.0906670888265" style="fill:darkred;stroke:darkred;stroke-width:1" /><polygon points="188.95466645558676,73.33333333333334 200.0,77.90933291117351 211.04533354441327,73.33333333333334 200.0,46.66666666666667" style="fill:dimgray;stroke:dimgray;stroke-width:1" /><polygon points="188.95466645558676,73.33333333333334 200.0,77.90933291117351 211.04533354441327,73.33333333333334 200.0,46.66666666666667" style="fill:dimgray;stroke:dimgray;stroke-width:1" /><polygon points="200.0,153.33333333333334 211.04533354441327,180.0 237.71199862162274,168.95466486612958 244.181334177653,153.33333333333334 237.71199862162274,137.71199862162274 211.04533354441327,126.66666666666667" style="fill:mediumpurple;stroke:mediumpurple;stroke-width:1" /><polygon points="200.0,153.33333333333334 211.04533354441327,180.0 237.71199862162274,168.95466486612958 244.181334177653,153.33333333333334 237.71199862162274,137.71199862162274 211.04533354441327,126.66666666666667" style="fill:mediumpurple;stroke:mediumpurple;stroke-width:1" /><polygon points="200.0,46.66666666666667 211.04533354441327,73.33333333333334 237.71199862162274,62.28800137837728 244.181334177653,46.66666666666667 237.71199862162274,31.045335133870445 211.04533354441327,20.0" style="fill:midnightblue;stroke:midnightblue;stroke-width:1" /><polygon points="200.0,46.66666666666667 211.04533354441327,73.33333333333334 237.71199862162274,62.28800137837728 244.181334177653,46.66666666666667 237.71199862162274,31.045335133870445 211.04533354441327,20.0" style="fill:midnightblue;stroke:midnightblue;stroke-width:1" /><polygon points="211.04533354441327,126.66666666666667 237.71199862162274,137.71199862162274 226.66666666666669,111.04533354441325 215.62133312225342,115.62133312225342" style="fill:olive;stroke:olive;stroke-width:1" /><polygon points="211.04533354441327,126.66666666666667 237.71199862162274,137.71199862162274 226.66666666666669,111.04533354441325 215.62133312225342,115.62133312225342" style="fill:olive;stroke:olive;stroke-width:1" /><polygon points="211.04533354441327,73.33333333333334 215.62133312225342,84.37866687774658 226.66666666666669,88.95466645558676 237.71199862162274,62.28800137837728" style="fill:chartreuse;stroke:chartreuse;stroke-width:1" /><polygon points="211.04533354441327,73.33333333333334 215.62133312225342,84.37866687774658 226.66666666666669,88.95466645558676 237.71199862162274,62.28800137837728" style="fill:chartreuse;stroke:chartreuse;stroke-width:1" /><polygon points="222.0906670888265,100.0 226.66666666666669,111.04533354441325 253.33333333333334,100.0 226.66666666666669,88.95466645558676" style="fill:darkorchid;stroke:darkorchid;stroke-width:1" /><polygon points="222.0906670888265,100.0 226.66666666666669,111.04533354441325 253.33333333333334,100.0 226.66666666666669,88.95466645558676" style="fill:darkorchid;stroke:darkorchid;stroke-width:1" /><polygon points="226.66666666666669,111.04533354441325 237.71199862162274,137.71199862162274 253.33333333333334,144.181334177653 268.9546648661296,137.71199862162274 280.0,111.04533354441325 253.33333333333334,100.0" style="fill:hotpink;stroke:hotpink;stroke-width:1" /><polygon points="226.66666666666669,111.04533354441325 237.71199862162274,137.71199862162274 253.33333333333334,144.181334177653 268.9546648661296,137.71199862162274 280.0,111.04533354441325 253.33333333333334,100.0" style="fill:hotpink;stroke:hotpink;stroke-width:1" /><polygon points="226.66666666666669,111.04533354441325 253.33333333333334,100.0 226.66666666666669,88.95466645558676 222.0906670888265,100.0" style="fill:lightskyblue;stroke:lightskyblue;stroke-width:1" /><polygon points="226.66666666666669,111.04533354441325 253.33333333333334,100.0 226.66666666666669,88.95466645558676 222.0906670888265,100.0" style="fill:lightskyblue;stroke:lightskyblue;stroke-width:1" /><polygon points="226.66666666666669,88.95466645558676 253.33333333333334,100.0 280.0,88.95466645558676 268.9546648661296,62.28800137837728 253.33333333333334,55.81866582234701 237.71199862162274,62.28800137837728" style="fill:peru;stroke:peru;stroke-width:1" /><polygon points="226.66666666666669,88.95466645558676 253.33333333333334,100.0 280.0,88.95466645558676 268.9546648661296,62.28800137837728 253.33333333333334,55.81866582234701 237.71199862162274,62.28800137837728" style="fill:peru;stroke:peru;stroke-width:1" /></svg>
