<svg width="400" height="200">
<rect width="400" height="200" fill="white"/>
<line x1="131.04533513387045" y1="137.71199862162274" x2="120.0" y2="111.04533354441325" stroke-width="3" stroke="red" opacity="0.5"/>
<line x1="120.0" y1="111.04533354441325" x2="146.66666666666666" y2="100.0" stroke-width="3" stroke="red" opacity="0.5"/>
<line x1="146.66666666666666" y1="100.0" x2="120.0" y2="88.95466645558676" stroke-width="3" stroke="red" opacity="0.5"/>
<line x1="120.0" y1="88.95466645558676" x2="131.04533513387045" y2="62.28800137837728" stroke-width="3" stroke="red" opacity="0.5"/>
<line x1="146.66666666666666" y1="144.181334177653" x2="131.04533513387045" y2="137.71199862162274" stroke-width="3" stroke="red" opacity="0.5"/>
<line x1="131.04533513387045" y1="62.28800137837728" x2="146.66666666666666" y2="55.81866582234701" stroke-width="3" stroke="red" opacity="0.5"/>
<line x1="162.2880013783773" y1="137.71199862162274" x2="146.66666666666666" y2="144.181334177653" stroke-width="3" stroke="red" opacity="0.5"/>
<line x1="146.66666666666666" y1="100.0" x2="173.33333333333334" y2="111.04533354441325" stroke-width="3" stroke="red" opacity="0.5"/>
<line x1="173.33333333333334" y1="88.95466645558676" x2="146.66666666666666" y2="100.0" stroke-width="3" stroke="red" opacity="0.5"/>
<line x1="146.66666666666666" y1="55.81866582234701" x2="162.2880013783773" y2="62.28800137837728" stroke-width="3" stroke="red" opacity="0.5"/>
<line x1="162.2880013783773" y1="168.95466486612958" x2="155.81866582234701" y2="153.33333333333334" stroke-width="3" stroke="red" opacity="0.5"/>
<line x1="155.81866582234701" y1="153.33333333333334" x2="162.2880013783773" y2="137.71199862162274" stroke-width="3" stroke="red" opacity="0.5"/>
<line x1="162.2880013783773" y1="62.28800137837728" x2="155.81866582234701" y2="46.66666666666667" stroke-width="3" stroke="red" opacity="0.5"/>
<line x1="155.81866582234701" y1="46.66666666666667" x2="162.2880013783773" y2="31.045335133870445" stroke-width="3" stroke="red" opacity="0.5"/>
<line x1="188.95466645558676" y1="180.0" x2="162.2880013783773" y2="168.95466486612958" stroke-width="3" stroke="red" opacity="0.5"/>
<line x1="162.2880013783773" y1="137.71199862162274" x2="188.95466645558676" y2="126.66666666666667" stroke-width="3" stroke="red" opacity="0.5"/>
<line x1="173.33333333333334" y1="111.04533354441325" x2="162.2880013783773" y2="137.71199862162274" stroke-width="3" stroke="red" opacity="0.5"/>
<line x1="162.2880013783773" y1="62.28800137837728" x2="173.33333333333334" y2="88.95466645558676" stroke-width="3" stroke="red" opacity="0.5"/>
<line x1="188.95466645558676" y1="73.33333333333334" x2="162.2880013783773" y2="62.28800137837728" stroke-width="3" stroke="red" opacity="0.5"/>
<line x1="162.2880013783773" y1="31.045335133870445" x2="188.95466645558676" y2="20.0" stroke-width="3" stroke="red" opacity="0.5"/>
<line x1="184.37866687774658" y1="115.62133312225342" x2="173.33333333333334" y2="111.04533354441325" stroke-width="3" stroke="red" opacity="0.5"/>
<line x1="173.33333333333334" y1="111.04533354441325" x2="177.90933291117352" y2="100.0" stroke-width="3" stroke="red" opacity="0.5"/>
<line x1="177.90933291117352" y1="100.0" x2="173.33333333333334" y2="88.95466645558676" stroke-width="3" stroke="red" opacity="0.5"/>
<line x1="173.33333333333334" y1="88.95466645558676" x2="184.37866687774658" y2="84.37866687774658" stroke-width="3" stroke="red" opacity="0.5"/>
<line x1="188.95466645558676" y1="126.66666666666667" x2="184.37866687774658" y2="115.62133312225342" stroke-width="3" stroke="red" opacity="0.5"/>
<line x1="184.37866687774658" y1="84.37866687774658" x2="188.95466645558676" y2="73.33333333333334" stroke-width="3" stroke="red" opacity="0.5"/>
<line x1="200.0" y1="153.33333333333334" x2="188.95466645558676" y2="180.0" stroke-width="3" stroke="red" opacity="0.5"/>
<line x1="188.95466645558676" y1="126.66666666666667" x2="200.0" y2="153.33333333333334" stroke-width="3" stroke="red" opacity="0.5"/>
<line x1="200.0" y1="122.0906670888265" x2="188.95466645558676" y2="126.66666666666667" stroke-width="3" stroke="red" opacity="0.5"/>
<line x1="188.95466645558676" y1="73.33333333333334" x2="200.0" y2="77.90933291117351" stroke-width="3" stroke="red" opacity="0.5"/>
<line x1="200.0" y1="46.66666666666667" x2="188.95466645558676" y2="73.33333333333334" stroke-width="3" stroke="red" opacity="0.5"/>
<line x1="188.95466645558676" y1="20.0" x2="200.0" y2="46.66666666666667" stroke-width="3" stroke="red" opacity="0.5"/>
<line x1="211.04533354441327" y1="180.0" x2="200.0" y2="153.33333333333334" stroke-width="3" stroke="red" opacity="0.5"/>
<line x1="200.0" y1="153.33333333333334" x2="211.04533354441327" y2="126.66666666666667" stroke-width="3" stroke="red" opacity="0.5"/>
<line x1="211.04533354441327" y1="126.66666666666667" x2="200.0" y2="122.0906670888265" stroke-width="3" stroke="red" opacity="0.5"/>
<line x1="200.0" y1="77.90933291117351" x2="211.04533354441327" y2="73.33333333333334" stroke-width="3" stroke="red" opacity="0.5"/>
<line x1="211.04533354441327" y1="73.33333333333334" x2="200.0" y2="46.66666666666667" stroke-width="3" stroke="red" opacity="0.5"/>
<line x1="200.0" y1="46.66666666666667" x2="211.04533354441327" y2="20.0" stroke-width="3" stroke="red" opacity="0.5"/>
<line x1="237.71199862162274" y1="168.95466486612958" x2="211.04533354441327" y2="180.0" stroke-width="3" stroke="red" opacity="0.5"/>
<line x1="211.04533354441327" y1="126.66666666666667" x2="237.71199862162274" y2="137.71199862162274" stroke-width="3" stroke="red" opacity="0.5"/>
<line x1="215.62133312225342" y1="115.62133312225342" x2="211.04533354441327" y2="126.66666666666667" stroke-width="3" stroke="red" opacity="0.5"/>
<line x1="211.04533354441327" y1="73.33333333333334" x2="215.62133312225342" y2="84.37866687774658" stroke-width="3" stroke="red" opacity="0.5"/>
<line x1="237.71199862162274" y1="62.28800137837728" x2="211.04533354441327" y2="73.33333333333334" stroke-width="3" stroke="red" opacity="0.5"/>
<line x1="211.04533354441327" y1="20.0" x2="237.71199862162274" y2="31.045335133870445" stroke-width="3" stroke="red" opacity="0.5"/>
<line x1="226.66666666666669" y1="111.04533354441325" x2="215.62133312225342" y2="115.62133312225342" stroke-width="3" stroke="red" opacity="0.5"/>
<line x1="215.62133312225342" y1="84.37866687774658" x2="226.66666666666669" y2="88.95466645558676" stroke-width="3" stroke="red" opacity="0.5"/>
<line x1="222.0906670888265" y1="100.0" x2="226.66666666666669" y2="111.04533354441325" stroke-width="3" stroke="red" opacity="0.5"/>
<line x1="226.66666666666669" y1="88.95466645558676" x2="222.0906670888265" y2="100.0" stroke-width="3" stroke="red" opacity="0.5"/>
<line x1="237.71199862162274" y1="137.71199862162274" x2="226.66666666666669" y2="111.04533354441325" stroke-width="3" stroke="red" opacity="0.5"/>
<line x1="226.66666666666669" y1="111.04533354441325" x2="253.33333333333334" y2="100.0" stroke-width="3" stroke="red" opacity="0.5"/>
<line x1="253.33333333333334" y1="100.0" x2="226.66666666666669" y2="88.95466645558676" stroke-width="3" stroke="red" opacity="0.5"/>
<line x1="226.66666666666669" y1="88.95466645558676" x2="237.71199862162274" y2="62.28800137837728" stroke-width="3" stroke="red" opacity="0.5"/>
<line x1="244.181334177653" y1="153.33333333333334" x2="237.71199862162274" y2="168.95466486612958" stroke-width="3" stroke="red" opacity="0.5"/>
<line x1="237.71199862162274" y1="137.71199862162274" x2="244.181334177653" y2="153.33333333333334" stroke-width="3" stroke="red" opacity="0.5"/>
<line x1="253.33333333333334" y1="144.181334177653" x2="237.71199862162274" y2="137.71199862162274" stroke-width="3" stroke="red" opacity="0.5"/>
<line x1="237.71199862162274" y1="62.28800137837728" x2="253.33333333333334" y2="55.81866582234701" stroke-width="3" stroke="red" opacity="0.5"/>
<line x1="244.181334177653" y1="46.66666666666667" x2="237.71199862162274" y2="62.28800137837728" stroke-width="3" stroke="red" opacity="0.5"/>
<line x1="237.71199862162274" y1="31.045335133870445" x2="244.181334177653" y2="46.66666666666667" stroke-width="3" stroke="red" opacity="0.5"/>
<line x1="268.9546648661296" y1="137.71199862162274" x2="253.33333333333334" y2="144.181334177653" stroke-width="3" stroke="red" opacity="0.5"/>
<line x1="253.33333333333334" y1="100.0" x2="280.0" y2="111.04533354441325" stroke-width="3" stroke="red" opacity="0.5"/>
<line x1="280.0" y1="88.95466645558676" x2="253.33333333333334" y2="100.0" stroke-width="3" stroke="red" opacity="0.5"/>
<line x1="253.33333333333334" y1="55.81866582234701" x2="268.9546648661296" y2="62.28800137837728" stroke-width="3" stroke="red" opacity="0.5"/>
<line x1="280.0" y1="111.04533354441325" x2="268.9546648661296" y2="137.71199862162274" stroke-width="3" stroke="red" opacity="0.5"/>
<line x1="268.9546648661296" y1="62.28800137837728" x2="280.0" y2="88.95466645558676" stroke-width="3" stroke="red" opacity="0.5"/>
<polygon points="146.66666666666666,100.0 173.33333333333334,111.04533354441325 177.90933291117352,100.0" style="fill:green;stroke:green;stroke-width:1" /><polygon points="146.66666666666666,100.0 173.33333333333334,111.04533354441325 177.90933291117352,100.0" style="fill:green;stroke:green;stroke-width:1" /><circle cx="177.90933291117352" cy="100.0" r="5" fill="blue"/> opacity="0.5"
<circle cx="177.90933291117352" cy="100.0" r="5" fill="blue"/> opacity="0.5"
<circle cx="173.33333333333334" cy="88.95466645558676" r="5" fill="purple"/> opacity="0.5"
<circle cx="173.33333333333334" cy="88.95466645558676" r="5" fill="purple"/> opacity="0.5"
<circle cx="173.33333333333334" cy="111.04533354441325" r="5" fill="orange"/> opacity="0.5"
<circle cx="173.33333333333334" cy="111.04533354441325" r="5" fill="orange"/> opacity="0.5"
</svg>
